<svg version="1.2" xmlns="http://www.w3.org/2000/svg" viewBox="0 0 369 137" width="369" height="137">
	<title>New Project</title>
	<style>
		.s0 { fill: #2e75b8 } 
		.s1 { fill: #0071c2 } 
	</style>
	<path id="path24" fill-rule="evenodd" class="s0" d="m71.5 40.9c7.2 0 14.1 3.2 19.1 8.2 0-2.4 1.6-4.2 3.9-4.2h0.5c3.6 0 4.3 3.3 4.3 4.4v37.5c-0.2 2.5 2.5 3.8 4.1 2.2 6-6.2 13.2-31.9-3.8-46.7-15.8-13.9-37-11.6-48.3-3.8-12.1 8.2-19.7 26.6-12.3 43.8 8.2 18.8 31.5 24.4 45.3 18.8 7-2.8 10.2 6.7 3 9.8-11 4.6-41.7 4.2-56-20.6-9.6-16.7-9.1-46.2 16.5-61.4 19.6-11.7 45.5-8.5 61.1 7.8 16.3 17 15.3 48.9-0.6 61.3-7.2 5.6-17.9 0.1-17.8-8.1l-0.1-2.6c-5 4.9-11.7 7.8-18.9 7.8-14.4 0-27-12.6-27-27 0-14.5 12.6-27.2 27-27.2zm18 26.2c-0.5-10.5-8.3-16.8-17.7-16.8h-0.4c-10.9 0-16.9 8.5-16.9 18.2 0 10.9 7.3 17.8 16.9 17.8 10.6 0 17.7-7.8 18.2-17.1z"/>
	<path id="limpe" class="s1" aria-label="limpe"  d="m139 93.4v-54q0-3 1.8-5 1.9-2.1 4.9-2.1 3 0 4.9 2.1 1.9 2.1 1.9 5v54q0 3-1.9 5.1-1.8 2-4.9 2-2.9 0-4.8-2-1.9-2-1.9-5.1zm19.4 0v-33.6q0-3 1.9-5 1.9-2 4.9-2 3 0 4.9 2 1.9 2 1.9 5v33.6q0 3-1.9 5.1-1.8 2-4.9 2-2.9 0-4.8-2-2-2-2-5.1zm6.8-61.1q3.4 0 5.8 2.4 2.3 2.3 2.3 5.8 0 3.5-2.3 5.8-2.4 2.4-5.8 2.4-3.4 0-5.7-2.4-2.4-2.3-2.4-5.8 0-3.4 2.4-5.8 2.4-2.4 5.7-2.4zm11.6 61.1v-33.6q0-3 1.8-5 1.9-2 5-2 2.5 0 4.4 1.4 1.6 1.1 2.4 2.9 1.6-2.5 4.7-3.8 3-1.4 6.9-1.4 3.4 0 6.9 1.4 3.5 1.3 5.7 4.2 3.4-2.6 5.6-3.7 3.8-1.9 7.6-1.9 7.5 0 11.9 3.8 5 4.3 5 12.3v25.4q0 3-2 5.1-1.8 2-4.8 2-3 0-4.9-2-1.9-2-1.9-5.1v-21.7q0-3.4-1.8-5.8-1.9-2.4-5-2.4-3.2 0-5 2.4-1.8 2.3-1.8 5.8v21.7q0 3-1.9 5.1-1.8 2-4.9 2-2.9 0-4.8-2-2-2-2-5.1v-21.7q0-3.4-1.8-5.8-1.8-2.4-4.9-2.4-3.3 0-5.1 2.4-1.7 2.3-1.7 5.8v21.7q0 3-1.9 5.1-1.9 2-4.9 2-3 0-4.9-2-1.9-2-1.9-5.1zm71.8 19v-52.6q0-3 1.8-5 1.9-2 5-2 2.1 0 3.8 1.3 1.7 1.3 2.5 3 4.3-5.2 11.7-5.2 8.8 0 14.9 7.2 6 7.1 6 17.5 0 10.4-6 17.7-6.1 7.1-14.9 7.1-4.1 0-6.6-1-2.4-1-4.7-2.8v14.8q0 3-1.9 5.1-1.8 2-4.8 2-3 0-4.9-2-1.9-2-1.9-5.1zm32.2-35.8q0-5-2.4-8.1-2.6-3.5-6.9-3.5-4.4 0-6.9 3.3-2.5 3.3-2.5 8.3 0 5 2.5 8.3 2.5 3.4 6.9 3.4 4.3 0 6.7-3.4 2.6-3.3 2.6-8.3zm56.4 4.5h-24.5q0 2.8 2.2 4.9 2.8 2.8 8.7 2.8 3.7 0 8.2-2.2 4.6-2.2 5.7-2.2 2.4 0 4 1.7 1.6 1.5 1.6 4.2 0 4.8-6.6 8-6.5 3.1-14.7 3.1-10.6 0-17.2-7.1-6.5-7.1-6.5-17.7 0-10.2 6.7-17.4 6.7-7.3 17-7.3 9.7 0 16 7.1 6 6.8 6 16.1 0 3.4-1.5 4.7-1.6 1.3-5.1 1.3zm-24.5-9.4h17.6q0-2.8-2.4-5.3-2.7-2.9-6.4-2.9-3.7 0-6.3 2.7-2.5 2.8-2.5 5.5z"/>
</svg>